<svg xmlns="http://www.w3.org/2000/svg" viewBox="-15 -50 400 210" class="looka-1j8o68f">
  <defs id="SvgjsDefs1021"></defs>
  <g id="SvgjsG1022" featurekey="HKaMnE-0" transform="matrix(1.2272089761570828,0,0,1.2272089761570828,-4.613604488078542,11.091164095371669)" fill="#3490de">
    <g xmlns="http://www.w3.org/2000/svg">
      <path d="M57.5,22.3c-0.3-4.8-4.1-8.7-8.9-9.3C46.6,7.6,41.4,4,35.5,4C30.1,4,25.3,7,23,11.7C16.2,7.5,3.3,11.1,3.5,23.8   c-1.9,1.9-3,4.5-3,7.2c0,5.5,4.5,10,10,10h3v-2h-3c-4.4,0-8-3.6-8-8c0-4.1,3.1-6.3,3.1-6.3c-1.5-9.6,9.7-16.8,18.3-9.9   c0,0,2.4-8.8,11.6-8.8c9.3,0,11.6,9,11.6,9c3.2-0.3,8.6,2.3,8.4,8.6c0,0,5,2,5,7.4c0,4.4-3.6,8-8,8h-4v2h4c5.5,0,10-4.5,10-10   C62.5,27.4,60.6,24.1,57.5,22.3z"></path>
      <path d="M7.5,23h2c0-3.9,3.1-7,7-7v-2C11.5,14,7.5,18,7.5,23z"></path>
      <path d="M51.5,22h-7.9l-1.3,10.2h-3.8v2h3.6L40.5,47H18.4l-1.8-14h1.9v-2h-4.1l2.3,18h23.6l-0.6,5h-2.3c-0.4-1.7-2-3-3.9-3   s-3.4,1.3-3.9,3h-2.3c-0.4-1.7-2-3-3.9-3s-3.4,1.3-3.9,3h-3.1v2h3.1c0.4,1.7,2,3,3.9,3s3.4-1.3,3.9-3h2.3c0.4,1.7,2,3,3.9,3   s3.4-1.3,3.9-3h4l4-32h6.1V22z M23.5,57c-1.1,0-2-0.9-2-2s0.9-2,2-2s2,0.9,2,2S24.6,57,23.5,57z M33.5,57c-1.1,0-2-0.9-2-2   s0.9-2,2-2s2,0.9,2,2S34.6,57,33.5,57z"></path>
      <rect x="19.5" y="28" width="2" height="8"></rect>
      <rect x="23.5" y="23" width="2" height="13"></rect>
      <rect x="27.5" y="26" width="2" height="10"></rect>
      <rect x="31.5" y="20" width="2" height="16"></rect>
      <rect x="35.5" y="17" width="2" height="19"></rect>
    </g>
  </g>
  <g id="SvgjsG1023" featurekey="J3GnXt-0" transform="matrix(2.471247316205692,0,0,2.471247316205692,94.02300211757588,9.735772478466345)" fill="#3490de">
    <path d="M0.8 14.18 c0 -3.08 2.62 -5.76 5.98 -5.76 c3.34 0 5.96 2.68 5.96 5.76 c0 0.42 -0.04 0.82 -0.12 1.2 l-8.34 0.02 c0.44 0.9 1.36 1.54 2.5 1.54 c0.78 0 1.48 -0.32 1.96 -0.8 l3.64 0 c-0.82 2.18 -3 3.82 -5.6 3.82 c-3.36 0 -5.98 -2.6 -5.98 -5.7 l0 -0.08 z M4.38 12.8 l-0.1 0.28 l5.06 0 l-0.16 -0.28 c-0.48 -0.8 -1.34 -1.36 -2.4 -1.36 s-1.94 0.56 -2.4 1.36 z M12.880000000000003 8.44 l4.7 11.54 l3.12 0 l4.72 -11.54 l-3.58 0 l-2.7 7.16 l-2.68 -7.16 l-3.58 0 z M25.360000000000003 14.18 c0 -3.08 2.62 -5.76 5.98 -5.76 c3.34 0 5.96 2.68 5.96 5.76 c0 0.42 -0.04 0.82 -0.12 1.2 l-8.34 0.02 c0.44 0.9 1.36 1.54 2.5 1.54 c0.78 0 1.48 -0.32 1.96 -0.8 l3.64 0 c-0.82 2.18 -3 3.82 -5.6 3.82 c-3.36 0 -5.98 -2.6 -5.98 -5.7 l0 -0.08 z M28.94 12.8 l-0.1 0.28 l5.06 0 l-0.16 -0.28 c-0.48 -0.8 -1.34 -1.36 -2.4 -1.36 s-1.94 0.56 -2.4 1.36 z M38.9 8.42 l0 11.58 l3.18 0 l0.04 -6.04 c0.02 -1.48 1.22 -2.72 2.8 -2.72 l0.84 0 l0.02 -3.04 l-0.86 0 c-0.98 0 -1.94 0.2 -2.8 0.64 l0 -0.42 l-3.22 0 z M47.379999999999995 20.56 c0 3.12 2.66 5.82 6.04 5.82 c3.46 0 6.06 -2.64 6.06 -5.82 l0 -12.16 l-3.24 0 l0 5.82 c0 1.46 -1.26 2.72 -2.82 2.72 c-1.54 0 -2.5 -1.12 -2.78 -2.52 l-0.02 -6.02 l-3.24 0 l0 5.94 c0 3.04 2.84 5.64 6.04 5.64 c1.02 0 1.98 -0.22 2.84 -0.66 l-0.02 1.24 c-0.04 1.54 -1.14 2.78 -2.82 2.78 c-1.58 0 -2.8 -1.32 -2.8 -2.78 l0 -0.18 l-3.24 0 l0 0.18 z M61.08 8.44 l3.22 11.54 l3.28 0 l1.96 -5.96 l2 5.96 l3.26 0 l3.22 -11.54 l-3.48 0 l-1.66 6.2 l-1.9 -6.2 l-2.86 0 l-1.92 6.2 l-1.66 -6.2 l-3.46 0 z M78.57999999999998 14.16 c0 3.14 2.66 5.84 6.04 5.84 c1.02 0 1.98 -0.22 2.86 -0.66 l0 0.66 l3.18 0 l-0.02 -11.56 l-3.24 0 l0 0.52 c-0.86 -0.42 -1.8 -0.62 -2.78 -0.62 c-3.38 0 -6.04 2.7 -6.04 5.82 z M86.61999999999999 16.14 c-0.54 0.52 -1.2 0.82 -2 0.82 c-1.58 0 -2.8 -1.32 -2.8 -2.8 c0 -1.46 1.22 -2.78 2.8 -2.78 c0.8 0 1.46 0.28 2 0.8 c0.34 0.34 0.78 1.06 0.78 1.48 l0 1.02 c0 0.42 -0.44 1.1 -0.78 1.46 z M92.25999999999998 8.42 l0 11.58 l3.18 0 l0.04 -6.04 c0.02 -1.48 1.22 -2.72 2.8 -2.72 l0.84 0 l0.02 -3.04 l-0.86 0 c-0.98 0 -1.94 0.2 -2.8 0.64 l0 -0.42 l-3.22 0 z M99.69999999999997 14.18 c0 -3.08 2.62 -5.76 5.98 -5.76 c3.34 0 5.96 2.68 5.96 5.76 c0 0.42 -0.04 0.82 -0.12 1.2 l-8.34 0.02 c0.44 0.9 1.36 1.54 2.5 1.54 c0.78 0 1.48 -0.32 1.96 -0.8 l3.64 0 c-0.82 2.18 -3 3.82 -5.6 3.82 c-3.36 0 -5.98 -2.6 -5.98 -5.7 l0 -0.08 z M103.27999999999997 12.8 l-0.1 0.28 l5.06 0 l-0.16 -0.28 c-0.48 -0.8 -1.34 -1.36 -2.4 -1.36 s-1.94 0.56 -2.4 1.36 z"></path>
  </g>
</svg>